# xmcd
#
# Track frame offsets: 
#        150
#        19115
#        30510
#        46990
#        59770
#        72825
#        90505
#        109970
#        124500
#        134055
#        154720
#        165140
#        185740
#        198735
#        208785
#        222745
#        233940
#        251190
#
# Disc length: 3624 seconds
#
# Revision: 5
# Processed by: cddbd v1.5.2PL0 Copyright (c) Steve Scherf et al.
# Submitted via: ExactAudioCopyFreeDBPlugin 1.0
#
DISCID=110e2612
DTITLE=Yves Montand - La chansonette
DYEAR=1996
DGENRE=Chanson française
TTITLE0=Les cireurs de souliers de Broadway
TTITLE1=Coucher avec elle
TTITLE2=Clémentine
TTITLE3=Les bijoux
TTITLE4=Dansons la rose
TTITLE5=Est-ce ainsi que les hommes vivent ?
TTITLE6=Les feuilles mortes
TTITLE7=Rengaine ta rengaine
TTITLE8=Les enfants qui s'aiment
TTITLE9=Dans ma maison
TTITLE10=Les jardins de Monte-Carle
TTITLE11=La chanson de Bilbao
TTITLE12=Sanguine
TTITLE13=Luna Park
TTITLE14=Retour
TTITLE15=De Shangaï à Bangkok
TTITLE16=Lettre anonyme à monsieur le conservateur
TTITLE17=Portobello
EXTD=
EXTT0=
EXTT1=
EXTT2=
EXTT3=
EXTT4=
EXTT5=
EXTT6=
EXTT7=
EXTT8=
EXTT9=
EXTT10=
EXTT11=
EXTT12=
EXTT13=
EXTT14=
EXTT15=
EXTT16=
EXTT17=
PLAYORDER=
